<svg id="Layer_1" data-name="Layer 1" xmlns="http://www.w3.org/2000/svg" viewBox="0 0 1063.64 525.22"><defs><style>.cls-1{fill:#231f20;}</style></defs><title>1Cblackmain</title><polygon class="cls-1" points="571.17 29.85 469.15 209.14 502.22 267.59 603.99 87.77 571.17 29.85"/><polygon class="cls-1" points="621.45 118.47 519.7 298.1 546.04 345.23 596.04 345.23 672.95 209.78 673.05 209.61 621.45 118.47"/><polygon class="cls-1" points="455.85 32.41 363.87 194.61 443.62 194.55 554.19 0 455.85 32.41"/><polygon class="cls-1" points="511.42 345.23 443.1 224.89 363.48 224.78 431.64 345.23 511.42 345.23"/><path class="cls-1" d="M0,413.66H86.8v22.75H26.39v21.47H77.52v20.75H26.39v44.22H0Z"/><path class="cls-1" d="M93.2,468.26c0-31.3,22-57,58.23-57,36.57,0,58.6,25.66,58.6,57s-22,57-58.6,57C115.21,525.22,93.2,499.56,93.2,468.26Zm89.53,0c0-18.93-13.65-31.48-31.3-31.48-17.29,0-30.93,12.56-30.93,31.48s13.65,31.48,30.93,31.48C169.08,499.74,182.73,487.18,182.73,468.26Z"/><path class="cls-1" d="M228.39,413.66h51.5c27.66,0,45.31,14.19,45.31,38,0,15.29-6.91,26.2-18.2,32.57v2.37L331.57,521v1.82h-30L280.07,491H254.78v31.85H228.39Zm50.41,22.75h-24v32.76H279c12.19,0,18.93-5.46,18.93-16.38C297.91,442.24,291,436.41,278.8,436.41Z"/><path class="cls-1" d="M396.64,457.88h55v12.19c0,31.85-17.29,55.14-52.23,55.14-36.4,0-58.42-25.66-58.42-57s22-57,58.42-57c28.94,0,41.13,13.65,41.13,13.65l-15.65,20A44.32,44.32,0,0,0,399,436.59c-17.65,0-30.76,12.74-30.76,31.66s13.1,31.66,30.76,31.66c15.65,0,23.84-9.46,24.2-20.2v-1.09H396.64Z"/><path class="cls-1" d="M545.57,478.63h-48V500.1h60.41v22.75H471.13V413.66h86.81v22.75H497.53v21.47h48Z"/><path class="cls-1" d="M579.48,413.66H631c27.66,0,45.31,14.19,45.31,38,0,15.29-6.92,26.2-18.2,32.57v2.37L682.66,521v1.82h-30L631.16,491H605.87v31.85H579.48Zm50.41,22.75h-24v32.76h24.2c12.2,0,18.93-5.46,18.93-16.38C649,442.24,642.08,436.41,629.89,436.41Z"/><path class="cls-1" d="M690.87,468.26c0-31.3,22-57,58.23-57,36.58,0,58.6,25.66,58.6,57s-22,57-58.6,57C712.89,525.22,690.87,499.56,690.87,468.26Zm89.54,0c0-18.93-13.65-31.48-31.3-31.48-17.29,0-30.93,12.56-30.93,31.48s13.65,31.48,30.93,31.48C766.75,499.74,780.4,487.18,780.4,468.26Z"/><path class="cls-1" d="M919.5,511.93s-12.19,13.28-38.94,13.28c-36.58,0-58.6-25.66-58.6-57s22-57,58.6-57c26.93,0,38.94,13.28,38.94,13.28l-15.1,20.2s-11.28-8.19-23.48-8.19c-18.56,0-31.67,12.74-31.67,31.66s13.1,31.66,31.67,31.66c15.47,0,23.48-8.19,23.48-8.19Z"/><path class="cls-1" d="M959.73,460.61l44.58-46.95h32.21V416l-42,44.59,42,59.69v2.55h-32c-9.65-14.19-18.92-28.57-28.39-42.95l-16.38,17.47v25.48H933.34V413.66h26.39Z"/><path class="cls-1" d="M1054.9,412a8.9,8.9,0,0,1,4.31,1.12,8.11,8.11,0,0,1,3.24,3.22,8.76,8.76,0,0,1,0,8.74,8.23,8.23,0,0,1-3.23,3.23,8.75,8.75,0,0,1-8.7,0,8.23,8.23,0,0,1-3.23-3.23,8.76,8.76,0,0,1,0-8.74,8.11,8.11,0,0,1,3.24-3.22A8.9,8.9,0,0,1,1054.9,412Zm0,1.71a7.13,7.13,0,0,0-3.46.9,6.54,6.54,0,0,0-2.61,2.59,7,7,0,0,0,0,7,6.64,6.64,0,0,0,2.59,2.6,7,7,0,0,0,7,0,6.69,6.69,0,0,0,2.59-2.6,7,7,0,0,0,0-7,6.53,6.53,0,0,0-2.61-2.59A7.16,7.16,0,0,0,1054.91,413.76Zm-4,11.7v-9.27h1.88q2.65,0,3,0a3.65,3.65,0,0,1,1.45.37,2.32,2.32,0,0,1,.87.89,2.6,2.6,0,0,1,.35,1.33,2.45,2.45,0,0,1-.66,1.72,3,3,0,0,1-1.84.88,2.32,2.32,0,0,1,.65.35,4.64,4.64,0,0,1,.63.71q.1.14.68,1.13l1.09,1.87h-2.33l-.78-1.51a6.27,6.27,0,0,0-1.3-1.91,2.07,2.07,0,0,0-1.3-.39h-.49v3.81Zm1.88-5.27h.76a9.29,9.29,0,0,0,2-.13,1.19,1.19,0,0,0,.85-1.15,1.13,1.13,0,0,0-.22-.69,1.22,1.22,0,0,0-.63-.43,9,9,0,0,0-2-.13h-.76Z"/></svg>